<svg xmlns="http://www.w3.org/2000/svg" width="24" height="24" viewBox="0 0 24 24">
  <g id="metamask" transform="translate(-1193 -25)">
    <rect id="Rectangle_9291" data-name="Rectangle 9291" width="24" height="24" transform="translate(1193 25)" fill="none"/>
    <g id="Group_12563" data-name="Group 12563" transform="translate(6881.104 -11287.901)">
      <path id="Path_24983" data-name="Path 24983" d="M27.637,1,19.824,6.781l1.453-3.407Z" transform="translate(-5694.731 11314.901)" fill="#e17726" stroke="#e17726" stroke-linecap="round" stroke-linejoin="round" stroke-width="0.25"/>
      <path id="Path_24984" data-name="Path 24984" d="M2.663,1l7.743,5.835L9.023,3.374Z" transform="translate(-5687.779 11314.901)" fill="#e27625" stroke="#e27625" stroke-linecap="round" stroke-linejoin="round" stroke-width="0.25"/>
      <path id="Path_24985" data-name="Path 24985" d="M26.813,23.533l-2.079,3.176,4.451,1.226L30.461,23.6Z" transform="translate(-5696.721 11305.771)" fill="#e27625" stroke="#e27625" stroke-linecap="round" stroke-linejoin="round" stroke-width="0.25"/>
      <path id="Path_24986" data-name="Path 24986" d="M1.273,23.6,2.54,27.935l4.444-1.226L4.913,23.533Z" transform="translate(-5687.215 11305.771)" fill="#e27625" stroke="#e27625" stroke-linecap="round" stroke-linejoin="round" stroke-width="0.25"/>
      <path id="Path_24987" data-name="Path 24987" d="M9.628,12.693,8.392,14.559l4.4.2-.147-4.74Z" transform="translate(-5690.099 11311.248)" fill="#e27625" stroke="#e27625" stroke-linecap="round" stroke-linejoin="round" stroke-width="0.25"/>
      <path id="Path_24988" data-name="Path 24988" d="M22.992,12.657,19.924,9.928l-.1,4.794,4.4-.2Z" transform="translate(-5694.731 11311.283)" fill="#e27625" stroke="#e27625" stroke-linecap="round" stroke-linejoin="round" stroke-width="0.25"/>
      <path id="Path_24989" data-name="Path 24989" d="M10.873,26.777l2.666-1.287-2.3-1.788Z" transform="translate(-5691.105 11305.703)" fill="#e27625" stroke="#e27625" stroke-linecap="round" stroke-linejoin="round" stroke-width="0.25"/>
      <path id="Path_24990" data-name="Path 24990" d="M20.266,25.49l2.658,1.287L22.561,23.7Z" transform="translate(-5694.91 11305.703)" fill="#e27625" stroke="#e27625" stroke-linecap="round" stroke-linejoin="round" stroke-width="0.25"/>
      <path id="Path_24991" data-name="Path 24991" d="M22.924,28l-2.658-1.287.216,1.727-.023.732Z" transform="translate(-5694.91 11304.485)" fill="#d5bfb2" stroke="#d5bfb2" stroke-linecap="round" stroke-linejoin="round" stroke-width="0.25"/>
      <path id="Path_24992" data-name="Path 24992" d="M10.873,28l2.473,1.172-.015-.732.209-1.727Z" transform="translate(-5691.105 11304.485)" fill="#d5bfb2" stroke="#d5bfb2" stroke-linecap="round" stroke-linejoin="round" stroke-width="0.25"/>
      <path id="Path_24993" data-name="Path 24993" d="M13.6,20.855l-2.21-.647,1.561-.717Z" transform="translate(-5691.315 11307.41)" fill="#233447" stroke="#233447" stroke-linecap="round" stroke-linejoin="round" stroke-width="0.25"/>
      <path id="Path_24994" data-name="Path 24994" d="M20.513,20.855l.649-1.364,1.569.717Z" transform="translate(-5695.01 11307.41)" fill="#233447" stroke="#233447" stroke-linecap="round" stroke-linejoin="round" stroke-width="0.25"/>
      <path id="Path_24995" data-name="Path 24995" d="M9.463,26.709l.386-3.176L7.392,23.6Z" transform="translate(-5689.694 11305.771)" fill="#cc6228" stroke="#cc6228" stroke-linecap="round" stroke-linejoin="round" stroke-width="0.25"/>
      <path id="Path_24996" data-name="Path 24996" d="M24.1,23.533l.379,3.176L26.556,23.6Z" transform="translate(-5696.463 11305.771)" fill="#cc6228" stroke="#cc6228" stroke-linecap="round" stroke-linejoin="round" stroke-width="0.25"/>
      <path id="Path_24997" data-name="Path 24997" d="M24.229,17.651l-4.4.2.41,2.258.649-1.364,1.569.717Z" transform="translate(-5694.731 11308.155)" fill="#cc6228" stroke="#cc6228" stroke-linecap="round" stroke-linejoin="round" stroke-width="0.25"/>
      <path id="Path_24998" data-name="Path 24998" d="M10.177,19.462l1.561-.717.649,1.364.41-2.258-4.4-.2Z" transform="translate(-5690.099 11308.155)" fill="#cc6228" stroke="#cc6228" stroke-linecap="round" stroke-linejoin="round" stroke-width="0.25"/>
      <path id="Path_24999" data-name="Path 24999" d="M8.392,17.651l1.847,3.6-.062-1.788Z" transform="translate(-5690.099 11308.155)" fill="#e27525" stroke="#e27525" stroke-linecap="round" stroke-linejoin="round" stroke-width="0.25"/>
      <path id="Path_25000" data-name="Path 25000" d="M24.194,19.462l-.07,1.788,1.847-3.6Z" transform="translate(-5696.474 11308.155)" fill="#e27525" stroke="#e27525" stroke-linecap="round" stroke-linejoin="round" stroke-width="0.25"/>
      <path id="Path_25001" data-name="Path 25001" d="M15.518,17.987l-.41,2.258.518,2.667.116-3.515Z" transform="translate(-5692.821 11308.02)" fill="#e27525" stroke="#e27525" stroke-linecap="round" stroke-linejoin="round" stroke-width="0.25"/>
      <path id="Path_25002" data-name="Path 25002" d="M19.677,17.987l-.216,1.4.108,3.522.518-2.667Z" transform="translate(-5694.583 11308.02)" fill="#e27525" stroke="#e27525" stroke-linecap="round" stroke-linejoin="round" stroke-width="0.25"/>
      <path id="Path_25003" data-name="Path 25003" d="M20.16,21.343l-.518,2.667.371.262,2.3-1.788.07-1.788Z" transform="translate(-5694.657 11306.922)" fill="#f5841f" stroke="#f5841f" stroke-linecap="round" stroke-linejoin="round" stroke-width="0.25"/>
      <path id="Path_25004" data-name="Path 25004" d="M11.393,20.7l.062,1.788,2.3,1.788.371-.262L13.6,21.343Z" transform="translate(-5691.315 11306.922)" fill="#f5841f" stroke="#f5841f" stroke-linecap="round" stroke-linejoin="round" stroke-width="0.25"/>
      <path id="Path_25005" data-name="Path 25005" d="M16.654,30.044l.023-.732-.2-.17H13.524l-.193.17.015.732-2.473-1.172.866.709,1.754,1.21H16.5l1.762-1.21.858-.709Z" transform="translate(-5691.105 11303.609)" fill="#c0ac9d" stroke="#c0ac9d" stroke-linecap="round" stroke-linejoin="round" stroke-width="0.25"/>
      <path id="Path_25006" data-name="Path 25006" d="M18.134,26.53l-.371-.262H15.584l-.371.262L15,28.256l.193-.17H18.15l.2.17Z" transform="translate(-5692.779 11304.664)" fill="#161616" stroke="#161616" stroke-linecap="round" stroke-linejoin="round" stroke-width="0.25"/>
      <path id="Path_25007" data-name="Path 25007" d="M28.148,7.159l.657-3.191L27.816,1l-7.55,5.588,2.906,2.451,4.1,1.195.9-1.056-.394-.285.626-.57-.479-.37.626-.478Z" transform="translate(-5694.91 11314.901)" fill="#763e1a" stroke="#763e1a" stroke-linecap="round" stroke-linejoin="round" stroke-width="0.25"/>
      <path id="Path_25008" data-name="Path 25008" d="M1,3.968l.665,3.191-.425.316.634.478-.479.37.626.57-.394.285.9,1.056,4.1-1.195L9.539,6.588,1.989,1Z" transform="translate(-5687.104 11314.901)" fill="#763e1a" stroke="#763e1a" stroke-linecap="round" stroke-linejoin="round" stroke-width="0.25"/>
      <path id="Path_25009" data-name="Path 25009" d="M28.838,15.71l-4.1-1.195,1.236,1.865-1.847,3.6,2.442-.031h3.648Z" transform="translate(-5696.474 11309.426)" fill="#f5841f" stroke="#f5841f" stroke-linecap="round" stroke-linejoin="round" stroke-width="0.25"/>
      <path id="Path_25010" data-name="Path 25010" d="M6.744,14.515l-4.1,1.195L1.273,19.949h3.64l2.442.031-1.847-3.6Z" transform="translate(-5687.215 11309.426)" fill="#f5841f" stroke="#f5841f" stroke-linecap="round" stroke-linejoin="round" stroke-width="0.25"/>
      <path id="Path_25011" data-name="Path 25011" d="M17.2,12.722l.263-4.517,1.19-3.214h-5.3l1.19,3.214.263,4.517.1,1.418.008,3.507h2.179L17.1,14.14Z" transform="translate(-5692.11 11313.285)" fill="#f5841f" stroke="#f5841f" stroke-linecap="round" stroke-linejoin="round" stroke-width="0.25"/>
    </g>
  </g>
</svg>
